<svg xmlns="http://www.w3.org/2000/svg" width="192" height="192" viewBox="0 0 192 192">
  <rect width="192" height="192" rx="42" fill="#0a0a0a"/>
  <rect width="192" height="192" rx="42" fill="url(#g)"/>
  <!-- Runner body -->
  <g fill="#FF5A1F">
    <!-- Head -->
    <circle cx="118" cy="52" r="13"/>
    <!-- Torso -->
    <path d="M104 68 Q96 88 92 108 L108 112 Q110 96 116 80 Z"/>
    <!-- Front arm (reaching forward) -->
    <path d="M110 74 Q126 66 138 60 Q141 57 138 54 Q135 51 132 54 Q122 59 108 68 Z"/>
    <!-- Back arm (behind) -->
    <path d="M100 76 Q84 84 74 90 Q71 93 73 96 Q76 99 79 97 Q88 91 103 82 Z"/>
    <!-- Front leg (extended forward) -->
    <path d="M96 108 Q88 124 80 136 Q76 142 80 146 Q84 150 88 147 Q96 138 104 122 Z"/>
    <!-- Back leg (extended back/down) -->
    <path d="M102 110 Q108 126 110 140 Q111 147 116 148 Q121 149 122 144 Q122 136 118 118 Z"/>
  </g>
  <!-- Motion lines -->
  <g stroke="#FF5A1F" stroke-width="3" stroke-linecap="round" opacity="0.4">
    <line x1="66" y1="72" x2="52" y2="72"/>
    <line x1="62" y1="84" x2="46" y2="84"/>
    <line x1="64" y1="96" x2="50" y2="96"/>
  </g>
  <defs>
    <linearGradient id="g" x1="0" y1="0" x2="1" y2="1">
      <stop offset="0" stop-color="#1a0800"/>
      <stop offset="1" stop-color="#0a0a0a"/>
    </linearGradient>
  </defs>
</svg>
